<?xml version="1.0" encoding="UTF-8" standalone="no"?>
<!-- Created with Inkscape (http://www.inkscape.org/) -->

<svg
   xmlns:dc="http://purl.org/dc/elements/1.1/"
   xmlns:cc="http://creativecommons.org/ns#"
   xmlns:rdf="http://www.w3.org/1999/02/22-rdf-syntax-ns#"
   xmlns:svg="http://www.w3.org/2000/svg"
   xmlns="http://www.w3.org/2000/svg"
   xmlns:sodipodi="http://sodipodi.sourceforge.net/DTD/sodipodi-0.dtd"
   xmlns:inkscape="http://www.inkscape.org/namespaces/inkscape"
   width="200"
   height="200"
   id="svg3038"
   version="1.1"
   inkscape:version="0.48.2 r9819"
   sodipodi:docname="questionmark.svg">
  <defs
     id="defs3040" />
  <sodipodi:namedview
     id="base"
     pagecolor="#ffffff"
     bordercolor="#666666"
     borderopacity="1.0"
     inkscape:pageopacity="0.0"
     inkscape:pageshadow="2"
     inkscape:zoom="1.9445436"
     inkscape:cx="14.403699"
     inkscape:cy="88.764752"
     inkscape:current-layer="layer1"
     showgrid="true"
     inkscape:document-units="px"
     inkscape:grid-bbox="true"
     inkscape:window-width="878"
     inkscape:window-height="689"
     inkscape:window-x="150"
     inkscape:window-y="42"
     inkscape:window-maximized="0">
    <inkscape:grid
       type="xygrid"
       id="grid2983" />
  </sodipodi:namedview>
  <metadata
     id="metadata3043">
    <rdf:RDF>
      <cc:Work
         rdf:about="">
        <dc:format>image/svg+xml</dc:format>
        <dc:type
           rdf:resource="http://purl.org/dc/dcmitype/StillImage" />
        <dc:title />
      </cc:Work>
    </rdf:RDF>
  </metadata>
  <g
     id="layer1"
     inkscape:label="Layer 1"
     inkscape:groupmode="layer"
     transform="translate(0,136)">
    <path
       style="fill:#000000"
       d="m 3.875,-66.21875 c -16.859657,-0.08304 -33.305941,10.199397 -40.594025,25.406157 -1.500015,10.331439 0.660303,20.869272 4.493921,30.471625 6.708046,1.4589276 10.746477,-9.23494 5.039246,-12.807029 -8.130659,-11.376006 -2.589576,-28.580624 9.290396,-35.002259 12.3206463,-7.555942 30.767604,-5.737937 39.492089,6.438382 7.536953,12.344952 4.012121,28.767532 -4.959968,39.393198 C 11.603668,-5.4431374 6.2112076,1.4583486 3.6072186,9.6951112 -2.2141808,12.91468 4.4067765,24.33339 9.5260363,19.176547 13.739483,13.977781 9.1978958,6.6755523 12.641721,1.1427815 18.656498,-11.649954 30.79825,-21.635588 32.525154,-36.302533 34.194617,-49.375243 25.670845,-64.070622 12.165535,-66.464888 9.4222053,-66.925625 6.5834758,-66.868906 3.875,-66.21875 z m 8.65625,107.4375 C 6.145378,42.016843 1.0226642,48.391646 1.689161,54.805884 5.653753,61.210865 17.484671,56.909241 16.410434,49.453794 15.470047,46.533709 12.25669,44.551307 12.53125,41.21875 z m 2.46875,12 c 2.278347,-0.22946 -1.357365,-1.344099 0,0 z m -6.6875,-5 c 0.9255394,-3.800683 1.809675,1.743263 0,0 z"
       id="path3213"
       inkscape:connector-curvature="0" />
  </g>
</svg>
