<?xml version="1.0" encoding="UTF-8" standalone="no"?>
<!-- Created with Inkscape (http://www.inkscape.org/) -->

<svg
   xmlns:dc="http://purl.org/dc/elements/1.1/"
   xmlns:cc="http://creativecommons.org/ns#"
   xmlns:rdf="http://www.w3.org/1999/02/22-rdf-syntax-ns#"
   xmlns:svg="http://www.w3.org/2000/svg"
   xmlns="http://www.w3.org/2000/svg"
   xmlns:sodipodi="http://sodipodi.sourceforge.net/DTD/sodipodi-0.dtd"
   xmlns:inkscape="http://www.inkscape.org/namespaces/inkscape"
   width="200"
   height="200"
   id="svg3038"
   version="1.1"
   inkscape:version="0.48.2 r9819"
   sodipodi:docname="village.svg">
  <defs
     id="defs3040" />
  <sodipodi:namedview
     id="base"
     pagecolor="#ffffff"
     bordercolor="#666666"
     borderopacity="1.0"
     inkscape:pageopacity="0.0"
     inkscape:pageshadow="2"
     inkscape:zoom="1.9445436"
     inkscape:cx="67.115297"
     inkscape:cy="88.764752"
     inkscape:current-layer="layer1"
     showgrid="true"
     inkscape:document-units="px"
     inkscape:grid-bbox="true"
     inkscape:window-width="878"
     inkscape:window-height="689"
     inkscape:window-x="150"
     inkscape:window-y="42"
     inkscape:window-maximized="0">
    <inkscape:grid
       type="xygrid"
       id="grid4108" />
  </sodipodi:namedview>
  <metadata
     id="metadata3043">
    <rdf:RDF>
      <cc:Work
         rdf:about="">
        <dc:format>image/svg+xml</dc:format>
        <dc:type
           rdf:resource="http://purl.org/dc/dcmitype/StillImage" />
        <dc:title />
      </cc:Work>
    </rdf:RDF>
  </metadata>
  <g
     id="layer1"
     inkscape:label="Layer 1"
     inkscape:groupmode="layer"
     transform="translate(0,136)">
    <path
       style="fill:#000000"
       d="m 14,-91.0625 c -19.2208037,-0.175006 -38.016621,5.927368 -57.28125,4.5625 -14.190068,6.387187 -16.204296,23.628715 -24.940655,34.914138 C -78.919732,-33.74937 -89.901419,-16.07869 -101.40625,1.25 c 13.931649,-3.1968032 13.18673,-20.831284 22.86265,-28.884289 12.317051,-15.223893 18.764021,-34.470292 32.387239,-48.73237 11.476557,-4.963907 24.411113,-3.935138 36.2919587,-7.545549 17.8374169,-3.600737 39.3411043,-6.785918 54.1622473,6.436031 14.612316,13.850273 20.58832,33.758347 30.591118,50.733812 5.340185,6.297324 8.485225,25.1885734 18.865157,20.1536492 C 98.525891,-17.441328 84.789801,-20.96889 80.777908,-28.968254 66.843957,-45.861615 62.487075,-69.208653 45.584081,-83.809909 38.301224,-90.660344 28.091105,-91.031303 18.698497,-90.725155 17.128796,-90.77493 15.559324,-90.871167 14,-91.0625 z m -37.75,34.65625 c -10.641408,0.843351 -20.371252,7.378335 -30.735066,7.612754 -4.120207,8.97367 0.02449,19.639532 -0.596335,29.265457 0.576441,5.775798 -0.772852,22.7097129 6.726375,11.0485762 3.397281,-8.1870702 -8.459775,-27.1936682 7.221657,-25.5276042 5.912376,1.993422 10.90892,-6.932122 2.089116,-4.388791 -5.623448,2.67054 -16.114743,0.997262 -9.584135,-7.030631 6.270318,-7.573657 18.813912,-3.00855 24.878388,-10.979761 z m 15.78125,2.0625 c -12.490263,3.51445 -2.411221,18.116899 -2.996105,26.754133 2.659811,5.845691 -0.351988,23.0093693 8.659735,19.0829016 C 1.174942,-17.725623 -6.3158829,-27.911011 -6.4449584,-37.682442 -7.4496965,-43.173508 -8.1270375,-48.7523 -7.96875,-54.34375 z m 12.875,0.375 c -10.9332423,3.326653 -5.65101123,16.147298 -3.5499838,23.908972 0.4269847,6.747638 3.2184484,25.8784942 12.8720428,19.238143 C 10.505136,-19.849314 6.3063683,-32.51416 5.2396435,-43.888033 4.8244197,-47.228121 4.6530596,-50.608482 4.90625,-53.96875 z M -20.25,-43.4375 c -8.062337,-0.939565 -7.890764,14.047805 -0.06155,5.290966 1.074061,-1.571438 0.853164,-3.666469 0.06155,-5.290966 z m 1.53125,15.5625 c -9.856513,-1.015401 -9.656801,23.1767555 -1.29565,16.542977 3.291369,-4.969595 -0.191088,-11.153999 1.29565,-16.542977 z m 79.1875,12.8125 C 49.909325,-11.972768 54.242861,0.57431021 55.151417,8.4905981 53.815886,13.278101 55.968488,25.24148 62.253714,17.577702 61.667233,7.5423522 59.129447,-2.948491 60.395953,-13.326624 l 0.0728,-1.735876 z m 39.625,17.78125 c -11.323282,6.6456746 -11.968414,21.481443 -20.5,30.5 -10.085852,17.455207 -19.029703,35.843825 -32.4375,51.09375 -24.382043,1.184298 -48.6705615,-5.350437 -73.014841,-1.92402 -3.649999,-0.757492 -18.595589,-2.382821 -13.189252,3.492407 12.181972,2.286447 24.603871,-3.293205 36.673622,0.416272 13.976164,0.89671 28.10018,0.989495 41.842971,3.984091 14.132057,-2.253056 20.435507,-16.66643 27.09375,-27.5625 12.111887,-19.450378 24.197165,-39.024572 33.53125,-60 z m -193,6.53125 c -5.015659,12.272102 4.504034,23.534176 9.764026,33.88098 C -76.064472,57.002207 -64.782902,68.093902 -56.96875,81.5 -50.648934,70.694786 -62.106661,61.147066 -68.60006,53.788224 -79.331369,40.479276 -83.717995,23.490418 -92.90625,9.25 z M 38.9375,14.96875 C 27.148406,14.550163 26.941824,35.866688 38.366137,36.803995 43.474038,39.417734 57.3065,30.144211 45.287836,32.645643 35.866563,33.148057 36.048073,21.792539 44.232891,19.56961 49.767272,15.070252 42.195976,14.603673 38.9375,14.96875 z m -84.90625,0.875 c -13.935588,4.733555 0.899077,19.035132 3.571437,27.202981 5.440305,7.004162 7.827766,21.55835 14.000719,24.29221 10.525884,-8.094439 -12.519925,-18.944147 -3.304446,-26.432112 10.955253,-3.396824 12.626124,8.253838 14.611714,15.397707 4.170239,7.346498 13.2087801,-0.485245 5.986001,-5.528003 -3.959858,-9.495315 10.28791609,1.111495 15.2145935,-1.18451 6.1104655,2.192226 17.8325495,-6.472685 5.5695906,-4.320271 -6.5250738,1.988861 -24.8554021,-4.507186 -12.4893254,-10.0038 11.1252362,-3.446531 -0.8330679,-15.073582 -6.8580098,-6.916887 -3.8321159,3.423792 -9.1707969,12.53131 -10.2103229,2.231374 -0.180722,-4.973363 -4.814574,-18.415153 -9.777155,-9.107049 1.242565,6.586844 8.705356,18.531354 -3.757185,16.723232 C -43.177828,37.458875 -44.357437,23.54953 -45.96875,15.84375 l 0,0 z M 37.25,19.375 c 7.267785,-1.606055 -3.285957,5.992974 0,0 z M 26.59375,19.59375 C 20.983732,21.665751 7.5291776,22.362264 9.4067452,29.846712 10.015948,36.100781 21.424559,49.852374 22.962797,37.549077 19.149567,30.2574 19.620757,22.336671 28.356072,19.806328 l 0.05937,-0.281042 -1.821691,0.06846 0,0 z M 64.5625,28.25 C 55.879661,26.526435 56.336466,45.240126 64.11125,35.954961 66.351346,33.804701 63.815374,30.780256 64.5625,28.25 z m -72.71875,2.0625 c 9.8718423,-0.67291 -4.894399,12.771199 -0.918033,2.419797 l 0.3588112,-1.245332 0.5592218,-1.174465 0,0 z m 9.34375,1.375 c -2.9396785,1.699844 -3.7911917,2.08497 0,0 z M 24.25,39.40625 c 0.291977,0.376353 -0.526464,-0.0433 0,0 z"
       id="path3046"
       inkscape:connector-curvature="0" />
    <path
       style="fill:#000000;fill-opacity:1;stroke:#000000;stroke-width:0.71999997px;stroke-linecap:butt;stroke-linejoin:miter;stroke-opacity:1"
       d="m -37,-41 -36,28.8 0,7.2 3.6,0 0,36 40.32,0 0,-25.1999999 13.68,0 0,25.1999999 11.5200006,0 0,-36 3.5999996,0 0,-7.2 L -11.755,-21.199999 -11.8,-41 -18.999999,-41 -18.82,-26.735 -37,-41 z m 75.6,18.000001 -21.599999,21.5999991 0,3.6 3.599999,0 L 20.6,31 l 10.8,0 0,-17.999999 10.8,0 0,17.999999 18,0 0,-28.7999999 3.6,0 0,-3.6 -25.2,-21.5999991 z m -100.8,21.5999991 21.6,0 0,14.4000009 -21.6,0 0,-14.4000009 z"
       id="path4129"
       inkscape:connector-curvature="0" />
  </g>
</svg>
